<svg id="Livello_1" data-name="Livello 1" xmlns="http://www.w3.org/2000/svg" viewBox="0 0 708.39 826.67"><defs><style>.cls-1{fill:#fff;}</style></defs><path class="cls-1" d="M869.43,550.35C844,433.61,740.11,346.2,615.77,346.2a258.54,258.54,0,0,0-113.62,26.12c-1,.48-2,1-2.92,1.46a112.24,112.24,0,0,0-52.83,58.65A112,112,0,0,0,616.22,564.15c.38-.28.78-.58,1.18-.86l.33-.23a32.24,32.24,0,0,1,50.44,26,138.92,138.92,0,0,1-7.62,21.42A144.58,144.58,0,0,1,387.35,582a246.85,246.85,0,0,1-8.74-65.24q0-9.25.68-18.3c9.37-127.62,115.89-228.25,245.87-228.25a246,246,0,0,1,54.64,6.09,238.16,238.16,0,0,1,33.05,10h0a89.55,89.55,0,0,0,9.31.48,91,91,0,0,0,43.62-171q-14.13-5.45-28.67-9.89A440.66,440.66,0,0,0,607.79,86.67C364.37,86.67,167,284,167,527.45a448.35,448.35,0,0,0,2.34,45.71,438,438,0,0,0,54.72,171.33C288,845.93,400.94,913.33,529.69,913.33c128.19,0,240.78-66.82,304.81-167.55,1.16-1.84,2.31-3.7,3.45-5.54a260.16,260.16,0,0,0,31.48-189.89Z" transform="translate(-167.01 -86.67)"/></svg>